<?xml version="1.0" encoding="UTF-8"?>
<svg xmlns="http://www.w3.org/2000/svg" xmlns:xlink="http://www.w3.org/1999/xlink" width="35px" height="35px" viewBox="0 0 33 33" version="1.1">
<g id="surface1">
<path style=" stroke:none;fill-rule:nonzero;fill:rgb(36.078431%,41.960784%,75.294118%);fill-opacity:1;" d="M 16.496094 0.34375 C 7.386719 0.34375 0 7.761719 0 16.910156 C 0 24.226562 4.726562 30.433594 11.285156 32.628906 C 12.109375 32.78125 12.414062 32.269531 12.414062 31.828125 C 12.414062 31.4375 12.398438 30.394531 12.390625 29.011719 C 7.800781 30.011719 6.832031 26.789062 6.832031 26.789062 C 6.082031 24.875 5 24.367188 5 24.367188 C 3.5 23.339844 5.109375 23.359375 5.109375 23.359375 C 6.765625 23.480469 7.636719 25.070312 7.636719 25.070312 C 9.109375 27.597656 11.5 26.871094 12.441406 26.445312 C 12.589844 25.375 13.015625 24.644531 13.488281 24.230469 C 9.824219 23.8125 5.972656 22.390625 5.972656 16.042969 C 5.972656 14.234375 6.617188 12.753906 7.671875 11.597656 C 7.5 11.179688 6.9375 9.492188 7.832031 7.214844 C 7.832031 7.214844 9.21875 6.769531 12.371094 8.910156 C 13.6875 8.542969 15.097656 8.359375 16.503906 8.355469 C 17.902344 8.363281 19.316406 8.542969 20.632812 8.914062 C 23.78125 6.769531 25.167969 7.214844 25.167969 7.214844 C 26.066406 9.496094 25.5 11.179688 25.332031 11.597656 C 26.390625 12.757812 27.027344 14.238281 27.027344 16.046875 C 27.027344 22.40625 23.171875 23.808594 19.496094 24.21875 C 20.085938 24.730469 20.613281 25.742188 20.613281 27.285156 C 20.613281 29.5 20.59375 31.289062 20.59375 31.828125 C 20.59375 32.273438 20.890625 32.789062 21.726562 32.625 C 28.277344 30.429688 33 24.226562 33 16.910156 C 33 7.761719 25.613281 0.34375 16.496094 0.34375 Z M 16.496094 0.34375 "/>
</g>
</svg>
