<?xml version="1.0" encoding="UTF-8"?>
<svg xmlns="http://www.w3.org/2000/svg" xmlns:xlink="http://www.w3.org/1999/xlink" width="15pt" height="33pt" viewBox="0 0 15 33" version="1.1">
<g id="surface1">
<path style=" stroke:none;fill-rule:nonzero;fill:rgb(82.745098%,29.019608%,27.843137%);fill-opacity:1;" d="M 11.558594 31.996094 L 11.875 26.722656 L 12.753906 25.230469 C 12.753906 25.230469 10.753906 26.042969 7.410156 26.042969 C 4.066406 26.042969 2.097656 25.246094 2.097656 25.246094 L 3.082031 26.871094 L 3.429688 31.996094 C 3.429688 32.542969 5.25 32.988281 7.492188 32.988281 C 9.738281 32.988281 11.558594 32.542969 11.558594 31.996094 M 10.554688 7.371094 L 11.222656 4.746094 L 14.917969 0.878906 L 13.941406 0.0507812 L 10.03125 4.175781 L 9.253906 7.3125 C 8.671875 7.292969 8.089844 7.28125 7.503906 7.28125 C 3.386719 7.28125 0.046875 7.75 0.046875 8.324219 C 0.046875 8.902344 3.386719 9.371094 7.503906 9.371094 C 11.625 9.371094 14.964844 8.902344 14.964844 8.324219 C 14.964844 7.902344 13.15625 7.535156 10.554688 7.371094 "/>
<path style=" stroke:none;fill-rule:nonzero;fill:rgb(100%,100%,100%);fill-opacity:1;" d="M 10.164062 8.84375 C 10.164062 8.84375 10.019531 8.875 9.597656 8.875 C 9.171875 8.878906 8.867188 8.875 8.75 8.765625 C 8.714844 8.734375 8.699219 8.679688 8.699219 8.636719 C 8.699219 8.5625 8.753906 8.519531 8.820312 8.492188 L 8.886719 8.59375 C 8.855469 8.601562 8.839844 8.613281 8.839844 8.625 C 8.839844 8.683594 9.277344 8.722656 9.609375 8.71875 C 9.941406 8.714844 10.34375 8.6875 10.34375 8.628906 C 10.34375 8.613281 10.3125 8.597656 10.261719 8.585938 L 10.324219 8.484375 C 10.410156 8.511719 10.484375 8.5625 10.484375 8.652344 C 10.484375 8.804688 10.292969 8.824219 10.164062 8.84375 "/>
<path style=" stroke:none;fill-rule:nonzero;fill:rgb(82.745098%,29.019608%,27.843137%);fill-opacity:1;" d="M 14.910156 0.886719 C 15.003906 0.777344 14.859375 0.503906 14.59375 0.273438 C 14.328125 0.046875 14.035156 -0.0546875 13.941406 0.0507812 C 13.847656 0.160156 13.992188 0.433594 14.257812 0.660156 C 14.523438 0.890625 14.816406 0.992188 14.910156 0.886719 M 11.378906 19.117188 C 11.292969 18.277344 13.222656 17.0625 12.726562 17.023438 C 11.660156 17.085938 11.128906 18.269531 10.59375 19.507812 C 10.394531 19.960938 9.722656 21.898438 9.28125 21.660156 C 8.839844 21.421875 9.855469 19.828125 10.136719 18.882812 C 9.808594 19.121094 8.609375 20.050781 8.296875 19.179688 C 7.800781 19.601562 6.738281 19.828125 6.855469 18.722656 C 6.589844 19.191406 5.996094 19.84375 5.285156 19.574219 C 4.347656 19.214844 5.828125 16.246094 6.195312 16.394531 C 6.5625 16.546875 6.121094 17.222656 6.003906 17.484375 C 5.75 18.0625 5.457031 18.789062 5.652344 18.9375 C 5.988281 19.195312 6.90625 17.976562 6.925781 17.949219 C 7.097656 17.722656 7.585938 16.246094 7.980469 16.417969 C 8.375 16.585938 6.996094 18.535156 7.511719 18.921875 C 7.617188 19 8.039062 18.871094 8.296875 18.59375 C 8.464844 18.414062 8.40625 18.015625 8.964844 16.695312 C 9.523438 15.371094 10.019531 13.726562 10.398438 13.851562 C 10.78125 13.976562 10.46875 14.820312 10.332031 15.136719 C 9.6875 16.613281 8.574219 19.058594 9.101562 18.871094 C 9.625 18.6875 9.898438 18.675781 10.410156 18.078125 C 10.925781 17.480469 10.902344 16.496094 11.242188 16.515625 C 11.585938 16.539062 11.527344 16.851562 11.445312 17.09375 C 11.78125 16.710938 13.042969 15.902344 13.34375 16.703125 C 13.707031 17.648438 11.542969 19.019531 12.082031 18.949219 C 12.609375 18.878906 13.460938 18.34375 13.824219 17.855469 L 14.824219 8.898438 C 14.824219 8.898438 13.816406 9.726562 7.410156 9.726562 C 1 9.726562 0.0976562 8.914062 0.0976562 8.914062 L 0.949219 17.089844 C 1.402344 15.8125 2.476562 13.222656 4.167969 13.308594 C 4.9375 13.347656 5.96875 14.824219 5.085938 14.875 C 4.714844 14.898438 4.675781 14.140625 4.234375 14.027344 C 3.917969 13.945312 3.472656 14.203125 3.1875 14.484375 C 2.613281 15.039062 1.386719 17.238281 1.546875 18.332031 C 1.753906 19.730469 3.484375 17.847656 3.777344 17.289062 C 3.980469 16.894531 4.121094 15.730469 4.570312 15.851562 C 5.023438 15.972656 4.53125 17.175781 4.207031 18.242188 C 3.839844 19.4375 3.644531 20.695312 3.1875 20.550781 C 2.726562 20.40625 3.476562 18.863281 3.449219 18.59375 C 3.015625 18.992188 2.21875 19.996094 1.199219 19.5 L 1.730469 24.574219 C 1.730469 24.574219 3.136719 25.683594 7.375 25.683594 C 11.613281 25.683594 13.070312 24.59375 13.070312 24.59375 L 13.726562 18.710938 C 13.191406 19.234375 11.488281 20.160156 11.378906 19.117188 "/>
</g>
</svg>
