<?xml version="1.0" encoding="UTF-8"?>
<svg xmlns="http://www.w3.org/2000/svg" xmlns:xlink="http://www.w3.org/1999/xlink" width="36pt" height="36pt" viewBox="0 0 36 36" version="1.1">
<g id="surface1">
<path style=" stroke:none;fill-rule:nonzero;fill:rgb(100%,88.235294%,0%);fill-opacity:1;" d="M 0.597656 35.402344 L 35.402344 35.402344 L 35.402344 0.597656 L 0.597656 0.597656 Z M 0.597656 35.402344 "/>
<path style=" stroke:none;fill-rule:nonzero;fill:rgb(100%,65.882353%,0%);fill-opacity:1;" d="M 33.601562 35.402344 L 35.402344 35.402344 L 35.402344 0.597656 L 33.601562 0.597656 Z M 33.601562 35.402344 "/>
<path style=" stroke:none;fill-rule:nonzero;fill:rgb(100%,100%,100%);fill-opacity:1;" d="M 0.597656 35.402344 L 2.398438 35.402344 L 2.398438 0.597656 L 0.597656 0.597656 Z M 0.597656 35.402344 "/>
<path style=" stroke:none;fill-rule:nonzero;fill:rgb(0%,0%,0%);fill-opacity:1;" d="M 35.402344 36 L 0.597656 36 C 0.269531 36 0 35.730469 0 35.402344 L 0 0.597656 C 0 0.269531 0.269531 0 0.597656 0 L 35.402344 0 C 35.730469 0 36 0.269531 36 0.597656 L 36 35.402344 C 36 35.730469 35.730469 36 35.402344 36 Z M 1.195312 34.804688 L 34.804688 34.804688 L 34.804688 1.195312 L 1.195312 1.195312 Z M 1.195312 34.804688 "/>
<path style=" stroke:none;fill-rule:nonzero;fill:rgb(0%,0%,0%);fill-opacity:1;" d="M 27.601562 33 C 24.625 33 22.203125 30.578125 22.203125 27.601562 C 22.203125 27.269531 22.46875 27.003906 22.800781 27.003906 C 23.128906 27.003906 23.398438 27.269531 23.398438 27.601562 C 23.398438 29.917969 25.285156 31.804688 27.601562 31.804688 C 29.917969 31.804688 31.804688 29.917969 31.804688 27.601562 C 31.804688 25.285156 29.917969 23.398438 27.601562 23.398438 C 24.625 23.398438 22.203125 20.976562 22.203125 18 C 22.203125 15.023438 24.625 12.601562 27.601562 12.601562 C 30.578125 12.601562 33 15.023438 33 18 C 33 18.332031 32.730469 18.597656 32.402344 18.597656 C 32.070312 18.597656 31.804688 18.332031 31.804688 18 C 31.804688 15.683594 29.917969 13.796875 27.601562 13.796875 C 25.285156 13.796875 23.398438 15.683594 23.398438 18 C 23.398438 20.316406 25.285156 22.203125 27.601562 22.203125 C 30.578125 22.203125 33 24.625 33 27.601562 C 33 30.578125 30.578125 33 27.601562 33 Z M 27.601562 33 "/>
<path style=" stroke:none;fill-rule:nonzero;fill:rgb(0%,0%,0%);fill-opacity:1;" d="M 15 33 C 12.023438 33 9.601562 30.578125 9.601562 27.601562 C 9.601562 27.269531 9.867188 27.003906 10.199219 27.003906 C 10.527344 27.003906 10.796875 27.269531 10.796875 27.601562 C 10.796875 29.917969 12.683594 31.804688 15 31.804688 C 17.316406 31.804688 19.203125 29.917969 19.203125 27.601562 L 19.203125 13.199219 C 19.203125 12.871094 19.46875 12.601562 19.800781 12.601562 C 20.128906 12.601562 20.398438 12.871094 20.398438 13.199219 L 20.398438 27.601562 C 20.398438 30.578125 17.976562 33 15 33 Z M 15 33 "/>
</g>
</svg>
