<?xml version="1.0" encoding="UTF-8"?>
<svg xmlns="http://www.w3.org/2000/svg" xmlns:xlink="http://www.w3.org/1999/xlink" width="16pt" height="16pt" viewBox="0 0 16 16" version="1.1">
<g id="surface1">
<path style=" stroke:none;fill-rule:nonzero;fill:rgb(0%,0%,0%);fill-opacity:1;" d="M 15.996094 16 L 16 16 L 16 10.132812 C 16 7.261719 15.382812 5.050781 12.027344 5.050781 C 10.414062 5.050781 9.328125 5.933594 8.886719 6.773438 L 8.839844 6.773438 L 8.839844 5.316406 L 5.660156 5.316406 L 5.660156 16 L 8.972656 16 L 8.972656 10.710938 C 8.972656 9.316406 9.238281 7.96875 10.960938 7.96875 C 12.660156 7.96875 12.6875 9.558594 12.6875 10.800781 L 12.6875 16 Z M 15.996094 16 "/>
<path style=" stroke:none;fill-rule:nonzero;fill:rgb(0%,0%,0%);fill-opacity:1;" d="M 0.265625 5.316406 L 3.582031 5.316406 L 3.582031 16 L 0.265625 16 Z M 0.265625 5.316406 "/>
<path style=" stroke:none;fill-rule:nonzero;fill:rgb(0%,0%,0%);fill-opacity:1;" d="M 1.921875 0 C 0.859375 0 0 0.859375 0 1.921875 C 0 2.980469 0.859375 3.859375 1.921875 3.859375 C 2.980469 3.859375 3.84375 2.980469 3.84375 1.921875 C 3.84375 0.859375 2.980469 0 1.921875 0 Z M 1.921875 0 "/>
</g>
</svg>
