<?xml version="1.0" encoding="iso-8859-1"?>
<!-- Generator: Adobe Illustrator 19.0.0, SVG Export Plug-In . SVG Version: 6.00 Build 0)  -->
<svg version="1.1" id="Capa_1" xmlns="http://www.w3.org/2000/svg" xmlns:xlink="http://www.w3.org/1999/xlink" x="0px" y="0px"
	 viewBox="0 0 469.333 469.333" style="enable-background:new 0 0 469.333 469.333;" xml:space="preserve">
<path style="fill:#FFC107;" d="M152.042,38.933c-2.539-23.424-23.573-40.363-46.997-37.824C83.69,3.413,67.392,21.205,66.965,42.667
	l18.56,224V288c0,3.691,0.213,7.125,0.448,10.667c0.32,4.715,3.712,8.64,8.32,9.664c0.768,0.171,1.536,0.256,2.325,0.256
	c3.861,0,7.403-2.069,9.301-5.44l57.6-101.952l0.171-0.235c1.536-2.091,2.24-4.651,2.027-7.232L152.042,38.933z"/>
<path style="fill:#FFD54F;" d="M402.282,67.541c1.067-11.819-2.88-23.552-10.88-32.32c-15.915-17.387-42.901-18.581-60.288-2.688
	c-7.829,7.147-12.693,16.96-13.675,27.52l-18.581,206.613c0,11.776-9.557,21.333-21.333,21.333s-21.333-9.557-21.333-21.333
	c0-5.888-4.779-10.667-10.667-10.667s-10.667,4.779-10.667,10.667l-148.885,32c3.349,42.304,27.051,80.341,63.552,101.995v58.005
	c0,5.888,4.779,10.667,10.667,10.667h149.333c5.888,0,10.667-4.779,10.667-10.667v-34.837c38.549-14.827,64-51.861,64-93.163v-63.04
	L402.282,67.541z"/>
<g>
	<path style="fill:#FFC107;" d="M277.525,106.667c-23.573,0-42.667,19.093-42.667,42.667v117.333
		c0,23.573,19.093,42.667,42.667,42.667s42.667-19.093,42.667-42.667V149.333C320.192,125.76,301.098,106.667,277.525,106.667z"/>
	<path style="fill:#FFC107;" d="M213.525,106.667c-23.573,0-42.667,19.093-42.667,42.667v23.253c0,5.888,4.779,10.667,10.667,10.667
		c1.088,0,2.176-0.171,3.221-0.491c7.979-2.453,16.619-1.301,23.68,3.136c9.621,4.651,17.088,12.864,20.779,22.912
		c1.664,6.976,0.405,14.336-3.499,20.373l-32,53.333c-1.003,1.664-1.515,3.541-1.515,5.483v8.747c0,4.608,2.944,8.683,7.317,10.133
		c4.501,1.557,9.237,2.389,14.016,2.453c23.573,0,42.667-19.093,42.667-42.667V149.333
		C256.192,125.76,237.098,106.667,213.525,106.667z"/>
</g>
<path style="fill:#FFD54F;" d="M249.792,203.243c-5.013-15.595-16.085-28.501-30.72-35.84c-12.288-7.488-27.2-9.28-40.917-4.949
	c-2.987,0.96-5.888,2.219-8.661,3.712c-0.747,0.384-1.472,0.853-2.133,1.365c-2.475,1.493-4.8,3.2-6.976,5.099
	c-2.837,2.347-5.504,4.928-7.936,7.701c-2.133,2.603-4.267,5.461-6.037,8.107c-0.811,1.088-1.515,2.24-2.133,3.435L87.53,292.565
	c-1.131,1.835-1.664,3.947-1.557,6.101l96,44.8l62.037-103.381C250.88,229.099,252.97,215.808,249.792,203.243z"/>
<path d="M277.44,309.333c-23.531,0-42.667-19.136-42.667-42.667V149.333c0-23.531,19.136-42.667,42.667-42.667
	s42.667,19.136,42.667,42.667v117.333C320.106,290.197,300.949,309.333,277.44,309.333z M277.44,128
	c-11.776,0-21.333,9.579-21.333,21.333v117.333c0,11.776,9.557,21.333,21.333,21.333s21.333-9.557,21.333-21.333V149.333
	C298.773,137.579,289.216,128,277.44,128z"/>
<path d="M213.44,309.333c-4.971-0.064-9.771-0.939-14.336-2.603c-4.203-1.536-6.997-5.547-6.997-10.027V288
	c0-1.941,0.512-3.84,1.515-5.483l32-53.333c4.651-8.043,5.547-15.915,2.581-23.253c-3.008-7.445-9.813-14.4-19.733-20.117
	c-7.296-4.501-15.872-5.547-23.744-2.987c-3.243,1.067-6.805,0.469-9.557-1.515c-2.752-1.984-4.395-5.227-4.395-8.64v-23.339
	c0-23.531,19.136-42.667,42.667-42.667s42.667,19.136,42.667,42.667v117.333C256.106,290.197,236.97,309.333,213.44,309.333z
	 M234.773,255.403l-19.52,32.533c10.859-0.875,19.52-10.091,19.52-21.269V255.403z M193.429,160.107
	c9.067,0,18.069,2.517,25.984,7.403c5.824,3.371,10.987,7.211,15.36,11.413v-29.589c0-11.755-9.579-21.333-21.333-21.333
	s-21.333,9.579-21.333,21.333v10.795C192.554,160.107,192.981,160.107,193.429,160.107z"/>
<path d="M309.44,469.333H160.106c-5.888,0-10.667-4.779-10.667-10.667v-57.792c-39.552-23.744-63.915-66.411-64-112.853v-21.355
	L67.029,46.165c-0.107-1.152-0.149-2.304-0.149-3.456c-0.021-11.371,4.416-22.101,12.459-30.165C87.381,4.459,98.09,0,109.482,0
	c22.251,0.021,40.491,16.747,42.475,38.891l11.563,131.264c2.304-1.643,4.736-3.115,7.253-4.416v-16.405
	c0-23.531,19.136-42.667,42.667-42.667c12.736,0,24.171,5.611,32,14.485c7.829-8.875,19.264-14.485,32-14.485
	c14.016,0,26.475,6.784,34.24,17.259l5.803-63.979c2.048-22.016,20.224-38.613,42.304-38.613h0.171c1.323,0,2.603,0.064,3.925,0.192
	c11.221,1.003,21.44,6.379,28.715,15.104c7.253,8.704,10.688,19.712,9.664,31.019l-18.197,200l0.043,63.04
	c0.064,41.28-25.877,78.421-64,92.992v34.987C320.106,464.555,315.328,469.333,309.44,469.333z M170.773,448h128v-32
	c0-4.757,3.115-8.917,7.68-10.24c33.216-9.621,56.384-40.491,56.32-75.072v-64.021l18.219-200.96
	c0.512-5.611-1.195-11.093-4.821-15.424c-3.605-4.331-8.683-6.997-14.315-7.509l-2.069-0.107c-11.008,0-20.032,8.256-21.035,19.2
	l-18.688,205.76c-0.512,5.675-4.779,10.581-11.115,9.685c-5.717-0.256-10.197-4.928-10.197-10.645V149.333
	c0-11.755-9.557-21.333-21.333-21.333s-21.333,9.579-21.333,21.333c0,5.888-4.779,10.667-10.667,10.667s-10.667-4.779-10.667-10.667
	c0-11.755-9.579-21.333-21.333-21.333c-11.755,0-21.333,9.579-21.333,21.333v23.339c0,4.459-2.795,8.469-6.997,10.005
	c-8.768,3.221-16.213,9.429-20.949,17.515c-2.368,4.011-7.061,5.995-11.541,4.992c-4.523-1.024-7.872-4.864-8.277-9.472
	L130.709,40.768c-0.981-11.051-10.112-19.435-21.227-19.435c-5.653,0-11.008,2.219-15.04,6.272
	c-4.032,4.032-6.229,9.387-6.229,15.083l18.517,223.083L106.773,288c0.085,40.725,22.443,77.995,58.368,97.28
	c3.456,1.856,5.632,5.461,5.632,9.387L170.773,448L170.773,448z"/>
<path d="M202.752,330.667c-5.888,0-10.667-4.779-10.667-10.667v-34.965l33.515-55.872c4.651-8.043,5.547-15.915,2.581-23.253
	c-3.008-7.445-9.813-14.4-19.733-20.117c-0.896-0.491-1.963-1.024-3.072-1.493c-16.277-6.955-35.243,0.683-42.197,17.045
	l-57.771,102.805c-2.901,5.12-9.387,6.955-14.528,4.053c-5.141-2.88-6.955-9.387-4.053-14.528l57.259-101.76
	c11.029-26.091,42.56-38.763,69.675-27.221c1.792,0.768,3.52,1.621,5.205,2.56c14.208,8.192,24.192,18.773,28.992,30.677
	c5.483,13.547,4.096,28.096-3.968,42.069l-30.571,50.965V320C213.418,325.888,208.64,330.667,202.752,330.667z"/>
<g>
</g>
<g>
</g>
<g>
</g>
<g>
</g>
<g>
</g>
<g>
</g>
<g>
</g>
<g>
</g>
<g>
</g>
<g>
</g>
<g>
</g>
<g>
</g>
<g>
</g>
<g>
</g>
<g>
</g>
</svg>
