<?xml version="1.0" encoding="UTF-8"?>
<svg xmlns="http://www.w3.org/2000/svg" xmlns:xlink="http://www.w3.org/1999/xlink" width="35px" height="35px" viewBox="0 0 33 33" version="1.1">
<g id="surface1">
<path fill="#fff" d="M 16.5 0 C 25.613281 0 33 7.386719 33 16.5 C 33 25.613281 25.613281 33 16.5 33 C 7.386719 33 0 25.613281 0 16.5 C 0 7.386719 7.386719 0 16.5 0 Z M 13.21875 21.996094 C 13.460938 22.882812 13.433594 23.714844 13.1875 24.460938 L 13.097656 24.707031 C 13.066406 24.792969 13.027344 24.875 12.992188 24.949219 C 12.796875 25.347656 12.542969 25.722656 12.226562 26.066406 C 11.269531 27.109375 9.929688 27.503906 9.355469 27.171875 C 8.734375 26.8125 9.042969 25.335938 10.15625 24.160156 C 11.355469 22.898438 13.070312 22.085938 13.070312 22.085938 L 13.070312 22.082031 Z M 26.847656 7.0625 C 26.101562 4.128906 21.242188 3.167969 16.644531 4.800781 C 13.90625 5.773438 10.945312 7.300781 8.816406 9.292969 C 6.28125 11.660156 5.878906 13.722656 6.042969 14.585938 C 6.632812 17.625 10.796875 19.613281 12.511719 21.089844 L 12.511719 21.097656 C 12.007812 21.34375 8.308594 23.199219 7.441406 25.117188 C 6.515625 27.140625 7.585938 28.585938 8.289062 28.769531 C 10.453125 29.367188 12.679688 28.273438 13.878906 26.5 C 15.03125 24.769531 14.929688 22.539062 14.433594 21.445312 C 15.117188 21.261719 15.917969 21.179688 16.949219 21.304688 C 19.839844 21.632812 20.414062 23.449219 20.289062 24.191406 C 20.167969 24.933594 19.570312 25.367188 19.363281 25.488281 C 19.15625 25.613281 19.097656 25.65625 19.117188 25.738281 C 19.136719 25.863281 19.242188 25.863281 19.402344 25.839844 C 19.632812 25.800781 20.910156 25.222656 20.972656 23.820312 C 21.035156 22.046875 19.34375 20.066406 16.332031 20.105469 C 15.09375 20.128906 14.308594 20.230469 13.753906 20.457031 C 13.710938 20.398438 13.671875 20.355469 13.609375 20.3125 C 11.753906 18.3125 8.308594 16.910156 8.453125 14.25 C 8.496094 13.28125 8.84375 10.726562 15.054688 7.632812 C 20.148438 5.09375 24.210938 5.796875 24.914062 7.34375 C 25.921875 9.546875 22.746094 13.652344 17.445312 14.25 C 15.425781 14.476562 14.371094 13.695312 14.101562 13.40625 C 13.816406 13.09375 13.773438 13.074219 13.671875 13.136719 C 13.507812 13.21875 13.609375 13.488281 13.671875 13.652344 C 13.835938 14.066406 14.476562 14.789062 15.589844 15.160156 C 16.558594 15.46875 18.933594 15.652344 21.777344 14.539062 C 24.972656 13.304688 27.46875 9.859375 26.746094 6.972656 Z M 26.847656 7.0625 "/>
</g>
</svg>
