<?xml version="1.0" encoding="UTF-8"?>
<svg xmlns="http://www.w3.org/2000/svg" xmlns:xlink="http://www.w3.org/1999/xlink" width="16pt" height="16pt" viewBox="0 0 16 16" version="1.1">
<g id="surface1">
<path style=" stroke:none;fill-rule:nonzero;fill:rgb(0%,0%,0%);fill-opacity:1;" d="M 15.753906 1.589844 C 15.558594 1.351562 15.265625 1.21875 14.929688 1.21875 C 14.746094 1.21875 14.550781 1.257812 14.351562 1.332031 L 0.808594 6.503906 C 0.0898438 6.777344 -0.0078125 7.1875 0 7.410156 C 0.0078125 7.632812 0.125 8.035156 0.859375 8.269531 C 0.863281 8.269531 0.867188 8.273438 0.871094 8.273438 L 3.683594 9.078125 L 5.203125 13.421875 C 5.410156 14.015625 5.875 14.382812 6.414062 14.382812 C 6.757812 14.382812 7.09375 14.238281 7.386719 13.96875 L 9.125 12.367188 L 11.644531 14.398438 L 11.667969 14.417969 C 11.671875 14.417969 11.671875 14.421875 11.675781 14.421875 C 11.957031 14.640625 12.261719 14.753906 12.558594 14.753906 C 13.144531 14.753906 13.609375 14.324219 13.746094 13.65625 L 15.964844 2.699219 C 16.050781 2.257812 15.976562 1.863281 15.753906 1.589844 Z M 4.621094 8.925781 L 10.042969 6.15625 L 6.667969 9.742188 C 6.613281 9.800781 6.574219 9.871094 6.554688 9.949219 L 5.902344 12.585938 Z M 6.75 13.277344 C 6.730469 13.300781 6.707031 13.316406 6.683594 13.335938 L 7.289062 10.890625 L 8.386719 11.773438 Z M 15.042969 2.511719 L 12.824219 13.46875 C 12.804688 13.574219 12.734375 13.816406 12.558594 13.816406 C 12.472656 13.816406 12.363281 13.769531 12.253906 13.683594 L 9.398438 11.386719 C 9.398438 11.386719 9.398438 11.382812 9.394531 11.382812 L 7.695312 10.015625 L 12.578125 4.832031 C 12.734375 4.664062 12.746094 4.410156 12.609375 4.226562 C 12.472656 4.046875 12.226562 3.988281 12.023438 4.089844 L 3.996094 8.191406 L 1.148438 7.378906 L 14.6875 2.210938 C 14.800781 2.164062 14.882812 2.15625 14.929688 2.15625 C 14.957031 2.15625 15.007812 2.160156 15.027344 2.183594 C 15.050781 2.214844 15.082031 2.316406 15.042969 2.511719 Z M 15.042969 2.511719 "/>
</g>
</svg>
